<svg xmlns:xlink="http://www.w3.org/1999/xlink" preserveAspectRatio="xMidYMid meet" data-bbox="61 53 1822 980" xmlns="http://www.w3.org/2000/svg" viewBox="0 0 1944 1080" height="1080" width="1944" data-type="ugc" role="presentation" aria-hidden="true" aria-label="">
    <g>
        <path stroke="#FFFFFF" d="M126 53v70H61V53h65z" fill="none"></path>
        <path stroke="#FFFFFF" d="M191 53v70h-65V53h65z" fill="none"></path>
        <path stroke="#FFFFFF" d="M256 53v70h-65V53h65z" fill="none"></path>
        <path stroke="#FFFFFF" d="M321 53v70h-65V53h65z" fill="none"></path>
        <path stroke="#FFFFFF" d="M386 53v70h-65V53h65z" fill="none"></path>
        <path stroke="#FFFFFF" d="M451 53v70h-65V53h65z" fill="none"></path>
        <path stroke="#FFFFFF" d="M516 53v70h-65V53h65z" fill="none"></path>
        <path stroke="#FFFFFF" d="M582 53v70h-66V53h66z" fill="none"></path>
        <path stroke="#FFFFFF" d="M647 53v70h-65V53h65z" fill="none"></path>
        <path stroke="#FFFFFF" d="M712 53v70h-65V53h65z" fill="none"></path>
        <path stroke="#FFFFFF" d="M777 53v70h-65V53h65z" fill="none"></path>
        <path stroke="#FFFFFF" d="M842 53v70h-65V53h65z" fill="none"></path>
        <path stroke="#FFFFFF" d="M907 53v70h-65V53h65z" fill="none"></path>
        <path stroke="#FFFFFF" d="M972 53v70h-65V53h65z" fill="none"></path>
        <path stroke="#FFFFFF" d="M1037 53v70h-65V53h65z" fill="none"></path>
        <path stroke="#FFFFFF" d="M1102 53v70h-65V53h65z" fill="none"></path>
        <path stroke="#FFFFFF" d="M1167 53v70h-65V53h65z" fill="none"></path>
        <path stroke="#FFFFFF" d="M1232 53v70h-65V53h65z" fill="none"></path>
        <path stroke="#FFFFFF" d="M1297 53v70h-65V53h65z" fill="none"></path>
        <path stroke="#FFFFFF" d="M1362 53v70h-65V53h65z" fill="none"></path>
        <path stroke="#FFFFFF" d="M1427 53v70h-65V53h65z" fill="none"></path>
        <path stroke="#FFFFFF" d="M1493 53v70h-66V53h66z" fill="none"></path>
        <path stroke="#FFFFFF" d="M1558 53v70h-65V53h65z" fill="none"></path>
        <path stroke="#FFFFFF" d="M1623 53v70h-65V53h65z" fill="none"></path>
        <path stroke="#FFFFFF" d="M1688 53v70h-65V53h65z" fill="none"></path>
        <path stroke="#FFFFFF" d="M1753 53v70h-65V53h65z" fill="none"></path>
        <path stroke="#FFFFFF" d="M1818 53v70h-65V53h65z" fill="none"></path>
        <path stroke="#FFFFFF" d="M1883 53v70h-65V53h65z" fill="none"></path>
        <path stroke="#FFFFFF" d="M126 123v70H61v-70h65z" fill="none"></path>
        <path stroke="#FFFFFF" d="M191 123v70h-65v-70h65z" fill="none"></path>
        <path stroke="#FFFFFF" d="M256 123v70h-65v-70h65z" fill="none"></path>
        <path stroke="#FFFFFF" d="M321 123v70h-65v-70h65z" fill="none"></path>
        <path stroke="#FFFFFF" d="M386 123v70h-65v-70h65z" fill="none"></path>
        <path stroke="#FFFFFF" d="M451 123v70h-65v-70h65z" fill="none"></path>
        <path stroke="#FFFFFF" d="M516 123v70h-65v-70h65z" fill="none"></path>
        <path stroke="#FFFFFF" d="M582 123v70h-66v-70h66z" fill="none"></path>
        <path stroke="#FFFFFF" d="M647 123v70h-65v-70h65z" fill="none"></path>
        <path stroke="#FFFFFF" d="M712 123v70h-65v-70h65z" fill="none"></path>
        <path stroke="#FFFFFF" d="M777 123v70h-65v-70h65z" fill="none"></path>
        <path stroke="#FFFFFF" d="M842 123v70h-65v-70h65z" fill="none"></path>
        <path stroke="#FFFFFF" d="M907 123v70h-65v-70h65z" fill="none"></path>
        <path stroke="#FFFFFF" d="M972 123v70h-65v-70h65z" fill="none"></path>
        <path stroke="#FFFFFF" d="M1037 123v70h-65v-70h65z" fill="none"></path>
        <path stroke="#FFFFFF" d="M1102 123v70h-65v-70h65z" fill="none"></path>
        <path stroke="#FFFFFF" d="M1167 123v70h-65v-70h65z" fill="none"></path>
        <path stroke="#FFFFFF" d="M1232 123v70h-65v-70h65z" fill="none"></path>
        <path stroke="#FFFFFF" d="M1297 123v70h-65v-70h65z" fill="none"></path>
        <path stroke="#FFFFFF" d="M1362 123v70h-65v-70h65z" fill="none"></path>
        <path stroke="#FFFFFF" d="M1427 123v70h-65v-70h65z" fill="none"></path>
        <path stroke="#FFFFFF" d="M1493 123v70h-66v-70h66z" fill="none"></path>
        <path stroke="#FFFFFF" d="M1558 123v70h-65v-70h65z" fill="none"></path>
        <path stroke="#FFFFFF" d="M1623 123v70h-65v-70h65z" fill="none"></path>
        <path stroke="#FFFFFF" d="M1688 123v70h-65v-70h65z" fill="none"></path>
        <path stroke="#FFFFFF" d="M1753 123v70h-65v-70h65z" fill="none"></path>
        <path stroke="#FFFFFF" d="M1818 123v70h-65v-70h65z" fill="none"></path>
        <path stroke="#FFFFFF" d="M1883 123v70h-65v-70h65z" fill="none"></path>
        <path stroke="#FFFFFF" d="M126 193v70H61v-70h65z" fill="none"></path>
        <path stroke="#FFFFFF" d="M191 193v70h-65v-70h65z" fill="none"></path>
        <path stroke="#FFFFFF" d="M256 193v70h-65v-70h65z" fill="none"></path>
        <path stroke="#FFFFFF" d="M321 193v70h-65v-70h65z" fill="none"></path>
        <path stroke="#FFFFFF" d="M386 193v70h-65v-70h65z" fill="none"></path>
        <path stroke="#FFFFFF" d="M451 193v70h-65v-70h65z" fill="none"></path>
        <path stroke="#FFFFFF" d="M516 193v70h-65v-70h65z" fill="none"></path>
        <path stroke="#FFFFFF" d="M582 193v70h-66v-70h66z" fill="none"></path>
        <path stroke="#FFFFFF" d="M647 193v70h-65v-70h65z" fill="none"></path>
        <path stroke="#FFFFFF" d="M712 193v70h-65v-70h65z" fill="none"></path>
        <path stroke="#FFFFFF" d="M777 193v70h-65v-70h65z" fill="none"></path>
        <path stroke="#FFFFFF" d="M842 193v70h-65v-70h65z" fill="none"></path>
        <path stroke="#FFFFFF" d="M907 193v70h-65v-70h65z" fill="none"></path>
        <path stroke="#FFFFFF" d="M972 193v70h-65v-70h65z" fill="none"></path>
        <path stroke="#FFFFFF" d="M1037 193v70h-65v-70h65z" fill="none"></path>
        <path stroke="#FFFFFF" d="M1102 193v70h-65v-70h65z" fill="none"></path>
        <path stroke="#FFFFFF" d="M1167 193v70h-65v-70h65z" fill="none"></path>
        <path stroke="#FFFFFF" d="M1232 193v70h-65v-70h65z" fill="none"></path>
        <path stroke="#FFFFFF" d="M1297 193v70h-65v-70h65z" fill="none"></path>
        <path stroke="#FFFFFF" d="M1362 193v70h-65v-70h65z" fill="none"></path>
        <path stroke="#FFFFFF" d="M1427 193v70h-65v-70h65z" fill="none"></path>
        <path stroke="#FFFFFF" d="M1493 193v70h-66v-70h66z" fill="none"></path>
        <path stroke="#FFFFFF" d="M1558 193v70h-65v-70h65z" fill="none"></path>
        <path stroke="#FFFFFF" d="M1623 193v70h-65v-70h65z" fill="none"></path>
        <path stroke="#FFFFFF" d="M1688 193v70h-65v-70h65z" fill="none"></path>
        <path stroke="#FFFFFF" d="M1753 193v70h-65v-70h65z" fill="none"></path>
        <path stroke="#FFFFFF" d="M1818 193v70h-65v-70h65z" fill="none"></path>
        <path stroke="#FFFFFF" d="M1883 193v70h-65v-70h65z" fill="none"></path>
        <path stroke="#FFFFFF" d="M126 263v70H61v-70h65z" fill="none"></path>
        <path stroke="#FFFFFF" d="M191 263v70h-65v-70h65z" fill="none"></path>
        <path stroke="#FFFFFF" d="M256 263v70h-65v-70h65z" fill="none"></path>
        <path stroke="#FFFFFF" d="M321 263v70h-65v-70h65z" fill="none"></path>
        <path stroke="#FFFFFF" d="M386 263v70h-65v-70h65z" fill="none"></path>
        <path stroke="#FFFFFF" d="M451 263v70h-65v-70h65z" fill="none"></path>
        <path stroke="#FFFFFF" d="M516 263v70h-65v-70h65z" fill="none"></path>
        <path stroke="#FFFFFF" d="M582 263v70h-66v-70h66z" fill="none"></path>
        <path stroke="#FFFFFF" d="M647 263v70h-65v-70h65z" fill="none"></path>
        <path stroke="#FFFFFF" d="M712 263v70h-65v-70h65z" fill="none"></path>
        <path stroke="#FFFFFF" d="M777 263v70h-65v-70h65z" fill="none"></path>
        <path stroke="#FFFFFF" d="M842 263v70h-65v-70h65z" fill="none"></path>
        <path stroke="#FFFFFF" d="M907 263v70h-65v-70h65z" fill="none"></path>
        <path stroke="#FFFFFF" d="M972 263v70h-65v-70h65z" fill="none"></path>
        <path stroke="#FFFFFF" d="M1037 263v70h-65v-70h65z" fill="none"></path>
        <path stroke="#FFFFFF" d="M1102 263v70h-65v-70h65z" fill="none"></path>
        <path stroke="#FFFFFF" d="M1167 263v70h-65v-70h65z" fill="none"></path>
        <path stroke="#FFFFFF" d="M1232 263v70h-65v-70h65z" fill="none"></path>
        <path stroke="#FFFFFF" d="M1297 263v70h-65v-70h65z" fill="none"></path>
        <path stroke="#FFFFFF" d="M1362 263v70h-65v-70h65z" fill="none"></path>
        <path stroke="#FFFFFF" d="M1427 263v70h-65v-70h65z" fill="none"></path>
        <path stroke="#FFFFFF" d="M1493 263v70h-66v-70h66z" fill="none"></path>
        <path stroke="#FFFFFF" d="M1558 263v70h-65v-70h65z" fill="none"></path>
        <path stroke="#FFFFFF" d="M1623 263v70h-65v-70h65z" fill="none"></path>
        <path stroke="#FFFFFF" d="M1688 263v70h-65v-70h65z" fill="none"></path>
        <path stroke="#FFFFFF" d="M1753 263v70h-65v-70h65z" fill="none"></path>
        <path stroke="#FFFFFF" d="M1818 263v70h-65v-70h65z" fill="none"></path>
        <path stroke="#FFFFFF" d="M1883 263v70h-65v-70h65z" fill="none"></path>
        <path stroke="#FFFFFF" d="M126 333v70H61v-70h65z" fill="none"></path>
        <path stroke="#FFFFFF" d="M191 333v70h-65v-70h65z" fill="none"></path>
        <path stroke="#FFFFFF" d="M256 333v70h-65v-70h65z" fill="none"></path>
        <path stroke="#FFFFFF" d="M321 333v70h-65v-70h65z" fill="none"></path>
        <path stroke="#FFFFFF" d="M386 333v70h-65v-70h65z" fill="none"></path>
        <path stroke="#FFFFFF" d="M451 333v70h-65v-70h65z" fill="none"></path>
        <path stroke="#FFFFFF" d="M516 333v70h-65v-70h65z" fill="none"></path>
        <path stroke="#FFFFFF" d="M582 333v70h-66v-70h66z" fill="none"></path>
        <path stroke="#FFFFFF" d="M647 333v70h-65v-70h65z" fill="none"></path>
        <path stroke="#FFFFFF" d="M712 333v70h-65v-70h65z" fill="none"></path>
        <path stroke="#FFFFFF" d="M777 333v70h-65v-70h65z" fill="none"></path>
        <path stroke="#FFFFFF" d="M842 333v70h-65v-70h65z" fill="none"></path>
        <path stroke="#FFFFFF" d="M907 333v70h-65v-70h65z" fill="none"></path>
        <path stroke="#FFFFFF" d="M972 333v70h-65v-70h65z" fill="none"></path>
        <path stroke="#FFFFFF" d="M1037 333v70h-65v-70h65z" fill="none"></path>
        <path stroke="#FFFFFF" d="M1102 333v70h-65v-70h65z" fill="none"></path>
        <path stroke="#FFFFFF" d="M1167 333v70h-65v-70h65z" fill="none"></path>
        <path stroke="#FFFFFF" d="M1232 333v70h-65v-70h65z" fill="none"></path>
        <path stroke="#FFFFFF" d="M1297 333v70h-65v-70h65z" fill="none"></path>
        <path stroke="#FFFFFF" d="M1362 333v70h-65v-70h65z" fill="none"></path>
        <path stroke="#FFFFFF" d="M1427 333v70h-65v-70h65z" fill="none"></path>
        <path stroke="#FFFFFF" d="M1493 333v70h-66v-70h66z" fill="none"></path>
        <path stroke="#FFFFFF" d="M1558 333v70h-65v-70h65z" fill="none"></path>
        <path stroke="#FFFFFF" d="M1623 333v70h-65v-70h65z" fill="none"></path>
        <path stroke="#FFFFFF" d="M1688 333v70h-65v-70h65z" fill="none"></path>
        <path stroke="#FFFFFF" d="M1753 333v70h-65v-70h65z" fill="none"></path>
        <path stroke="#FFFFFF" d="M1818 333v70h-65v-70h65z" fill="none"></path>
        <path stroke="#FFFFFF" d="M1883 333v70h-65v-70h65z" fill="none"></path>
        <path stroke="#FFFFFF" d="M126 403v70H61v-70h65z" fill="none"></path>
        <path stroke="#FFFFFF" d="M191 403v70h-65v-70h65z" fill="none"></path>
        <path stroke="#FFFFFF" d="M256 403v70h-65v-70h65z" fill="none"></path>
        <path stroke="#FFFFFF" d="M321 403v70h-65v-70h65z" fill="none"></path>
        <path stroke="#FFFFFF" d="M386 403v70h-65v-70h65z" fill="none"></path>
        <path stroke="#FFFFFF" d="M451 403v70h-65v-70h65z" fill="none"></path>
        <path stroke="#FFFFFF" d="M516 403v70h-65v-70h65z" fill="none"></path>
        <path stroke="#FFFFFF" d="M582 403v70h-66v-70h66z" fill="none"></path>
        <path stroke="#FFFFFF" d="M647 403v70h-65v-70h65z" fill="none"></path>
        <path stroke="#FFFFFF" d="M712 403v70h-65v-70h65z" fill="none"></path>
        <path stroke="#FFFFFF" d="M777 403v70h-65v-70h65z" fill="none"></path>
        <path stroke="#FFFFFF" d="M842 403v70h-65v-70h65z" fill="none"></path>
        <path stroke="#FFFFFF" d="M907 403v70h-65v-70h65z" fill="none"></path>
        <path stroke="#FFFFFF" d="M972 403v70h-65v-70h65z" fill="none"></path>
        <path stroke="#FFFFFF" d="M1037 403v70h-65v-70h65z" fill="none"></path>
        <path stroke="#FFFFFF" d="M1102 403v70h-65v-70h65z" fill="none"></path>
        <path stroke="#FFFFFF" d="M1167 403v70h-65v-70h65z" fill="none"></path>
        <path stroke="#FFFFFF" d="M1232 403v70h-65v-70h65z" fill="none"></path>
        <path stroke="#FFFFFF" d="M1297 403v70h-65v-70h65z" fill="none"></path>
        <path stroke="#FFFFFF" d="M1362 403v70h-65v-70h65z" fill="none"></path>
        <path stroke="#FFFFFF" d="M1427 403v70h-65v-70h65z" fill="none"></path>
        <path stroke="#FFFFFF" d="M1493 403v70h-66v-70h66z" fill="none"></path>
        <path stroke="#FFFFFF" d="M1558 403v70h-65v-70h65z" fill="none"></path>
        <path stroke="#FFFFFF" d="M1623 403v70h-65v-70h65z" fill="none"></path>
        <path stroke="#FFFFFF" d="M1688 403v70h-65v-70h65z" fill="none"></path>
        <path stroke="#FFFFFF" d="M1753 403v70h-65v-70h65z" fill="none"></path>
        <path stroke="#FFFFFF" d="M1818 403v70h-65v-70h65z" fill="none"></path>
        <path stroke="#FFFFFF" d="M1883 403v70h-65v-70h65z" fill="none"></path>
        <path stroke="#FFFFFF" d="M126 473v70H61v-70h65z" fill="none"></path>
        <path stroke="#FFFFFF" d="M191 473v70h-65v-70h65z" fill="none"></path>
        <path stroke="#FFFFFF" d="M256 473v70h-65v-70h65z" fill="none"></path>
        <path stroke="#FFFFFF" d="M321 473v70h-65v-70h65z" fill="none"></path>
        <path stroke="#FFFFFF" d="M386 473v70h-65v-70h65z" fill="none"></path>
        <path stroke="#FFFFFF" d="M451 473v70h-65v-70h65z" fill="none"></path>
        <path stroke="#FFFFFF" d="M516 473v70h-65v-70h65z" fill="none"></path>
        <path stroke="#FFFFFF" d="M582 473v70h-66v-70h66z" fill="none"></path>
        <path stroke="#FFFFFF" d="M647 473v70h-65v-70h65z" fill="none"></path>
        <path stroke="#FFFFFF" d="M712 473v70h-65v-70h65z" fill="none"></path>
        <path stroke="#FFFFFF" d="M777 473v70h-65v-70h65z" fill="none"></path>
        <path stroke="#FFFFFF" d="M842 473v70h-65v-70h65z" fill="none"></path>
        <path stroke="#FFFFFF" d="M907 473v70h-65v-70h65z" fill="none"></path>
        <path stroke="#FFFFFF" d="M972 473v70h-65v-70h65z" fill="none"></path>
        <path stroke="#FFFFFF" d="M1037 473v70h-65v-70h65z" fill="none"></path>
        <path stroke="#FFFFFF" d="M1102 473v70h-65v-70h65z" fill="none"></path>
        <path stroke="#FFFFFF" d="M1167 473v70h-65v-70h65z" fill="none"></path>
        <path stroke="#FFFFFF" d="M1232 473v70h-65v-70h65z" fill="none"></path>
        <path stroke="#FFFFFF" d="M1297 473v70h-65v-70h65z" fill="none"></path>
        <path stroke="#FFFFFF" d="M1362 473v70h-65v-70h65z" fill="none"></path>
        <path stroke="#FFFFFF" d="M1427 473v70h-65v-70h65z" fill="none"></path>
        <path stroke="#FFFFFF" d="M1493 473v70h-66v-70h66z" fill="none"></path>
        <path stroke="#FFFFFF" d="M1558 473v70h-65v-70h65z" fill="none"></path>
        <path stroke="#FFFFFF" d="M1623 473v70h-65v-70h65z" fill="none"></path>
        <path stroke="#FFFFFF" d="M1688 473v70h-65v-70h65z" fill="none"></path>
        <path stroke="#FFFFFF" d="M1753 473v70h-65v-70h65z" fill="none"></path>
        <path stroke="#FFFFFF" d="M1818 473v70h-65v-70h65z" fill="none"></path>
        <path stroke="#FFFFFF" d="M1883 473v70h-65v-70h65z" fill="none"></path>
        <path stroke="#FFFFFF" d="M126 543v70H61v-70h65z" fill="none"></path>
        <path stroke="#FFFFFF" d="M191 543v70h-65v-70h65z" fill="none"></path>
        <path stroke="#FFFFFF" d="M256 543v70h-65v-70h65z" fill="none"></path>
        <path stroke="#FFFFFF" d="M321 543v70h-65v-70h65z" fill="none"></path>
        <path stroke="#FFFFFF" d="M386 543v70h-65v-70h65z" fill="none"></path>
        <path stroke="#FFFFFF" d="M451 543v70h-65v-70h65z" fill="none"></path>
        <path stroke="#FFFFFF" d="M516 543v70h-65v-70h65z" fill="none"></path>
        <path stroke="#FFFFFF" d="M582 543v70h-66v-70h66z" fill="none"></path>
        <path stroke="#FFFFFF" d="M647 543v70h-65v-70h65z" fill="none"></path>
        <path stroke="#FFFFFF" d="M712 543v70h-65v-70h65z" fill="none"></path>
        <path stroke="#FFFFFF" d="M777 543v70h-65v-70h65z" fill="none"></path>
        <path stroke="#FFFFFF" d="M842 543v70h-65v-70h65z" fill="none"></path>
        <path stroke="#FFFFFF" d="M907 543v70h-65v-70h65z" fill="none"></path>
        <path stroke="#FFFFFF" d="M972 543v70h-65v-70h65z" fill="none"></path>
        <path stroke="#FFFFFF" d="M1037 543v70h-65v-70h65z" fill="none"></path>
        <path stroke="#FFFFFF" d="M1102 543v70h-65v-70h65z" fill="none"></path>
        <path stroke="#FFFFFF" d="M1167 543v70h-65v-70h65z" fill="none"></path>
        <path stroke="#FFFFFF" d="M1232 543v70h-65v-70h65z" fill="none"></path>
        <path stroke="#FFFFFF" d="M1297 543v70h-65v-70h65z" fill="none"></path>
        <path stroke="#FFFFFF" d="M1362 543v70h-65v-70h65z" fill="none"></path>
        <path stroke="#FFFFFF" d="M1427 543v70h-65v-70h65z" fill="none"></path>
        <path stroke="#FFFFFF" d="M1493 543v70h-66v-70h66z" fill="none"></path>
        <path stroke="#FFFFFF" d="M1558 543v70h-65v-70h65z" fill="none"></path>
        <path stroke="#FFFFFF" d="M1623 543v70h-65v-70h65z" fill="none"></path>
        <path stroke="#FFFFFF" d="M1688 543v70h-65v-70h65z" fill="none"></path>
        <path stroke="#FFFFFF" d="M1753 543v70h-65v-70h65z" fill="none"></path>
        <path stroke="#FFFFFF" d="M1818 543v70h-65v-70h65z" fill="none"></path>
        <path stroke="#FFFFFF" d="M1883 543v70h-65v-70h65z" fill="none"></path>
        <path stroke="#FFFFFF" d="M126 613v70H61v-70h65z" fill="none"></path>
        <path stroke="#FFFFFF" d="M191 613v70h-65v-70h65z" fill="none"></path>
        <path stroke="#FFFFFF" d="M256 613v70h-65v-70h65z" fill="none"></path>
        <path stroke="#FFFFFF" d="M321 613v70h-65v-70h65z" fill="none"></path>
        <path stroke="#FFFFFF" d="M386 613v70h-65v-70h65z" fill="none"></path>
        <path stroke="#FFFFFF" d="M451 613v70h-65v-70h65z" fill="none"></path>
        <path stroke="#FFFFFF" d="M516 613v70h-65v-70h65z" fill="none"></path>
        <path stroke="#FFFFFF" d="M582 613v70h-66v-70h66z" fill="none"></path>
        <path stroke="#FFFFFF" d="M647 613v70h-65v-70h65z" fill="none"></path>
        <path stroke="#FFFFFF" d="M712 613v70h-65v-70h65z" fill="none"></path>
        <path stroke="#FFFFFF" d="M777 613v70h-65v-70h65z" fill="none"></path>
        <path stroke="#FFFFFF" d="M842 613v70h-65v-70h65z" fill="none"></path>
        <path stroke="#FFFFFF" d="M907 613v70h-65v-70h65z" fill="none"></path>
        <path stroke="#FFFFFF" d="M972 613v70h-65v-70h65z" fill="none"></path>
        <path stroke="#FFFFFF" d="M1037 613v70h-65v-70h65z" fill="none"></path>
        <path stroke="#FFFFFF" d="M1102 613v70h-65v-70h65z" fill="none"></path>
        <path stroke="#FFFFFF" d="M1167 613v70h-65v-70h65z" fill="none"></path>
        <path stroke="#FFFFFF" d="M1232 613v70h-65v-70h65z" fill="none"></path>
        <path stroke="#FFFFFF" d="M1297 613v70h-65v-70h65z" fill="none"></path>
        <path stroke="#FFFFFF" d="M1362 613v70h-65v-70h65z" fill="none"></path>
        <path stroke="#FFFFFF" d="M1427 613v70h-65v-70h65z" fill="none"></path>
        <path stroke="#FFFFFF" d="M1493 613v70h-66v-70h66z" fill="none"></path>
        <path stroke="#FFFFFF" d="M1558 613v70h-65v-70h65z" fill="none"></path>
        <path stroke="#FFFFFF" d="M1623 613v70h-65v-70h65z" fill="none"></path>
        <path stroke="#FFFFFF" d="M1688 613v70h-65v-70h65z" fill="none"></path>
        <path stroke="#FFFFFF" d="M1753 613v70h-65v-70h65z" fill="none"></path>
        <path stroke="#FFFFFF" d="M1818 613v70h-65v-70h65z" fill="none"></path>
        <path stroke="#FFFFFF" d="M1883 613v70h-65v-70h65z" fill="none"></path>
        <path stroke="#FFFFFF" d="M126 683v70H61v-70h65z" fill="none"></path>
        <path stroke="#FFFFFF" d="M191 683v70h-65v-70h65z" fill="none"></path>
        <path stroke="#FFFFFF" d="M256 683v70h-65v-70h65z" fill="none"></path>
        <path stroke="#FFFFFF" d="M321 683v70h-65v-70h65z" fill="none"></path>
        <path stroke="#FFFFFF" d="M386 683v70h-65v-70h65z" fill="none"></path>
        <path stroke="#FFFFFF" d="M451 683v70h-65v-70h65z" fill="none"></path>
        <path stroke="#FFFFFF" d="M516 683v70h-65v-70h65z" fill="none"></path>
        <path stroke="#FFFFFF" d="M582 683v70h-66v-70h66z" fill="none"></path>
        <path stroke="#FFFFFF" d="M647 683v70h-65v-70h65z" fill="none"></path>
        <path stroke="#FFFFFF" d="M712 683v70h-65v-70h65z" fill="none"></path>
        <path stroke="#FFFFFF" d="M777 683v70h-65v-70h65z" fill="none"></path>
        <path stroke="#FFFFFF" d="M842 683v70h-65v-70h65z" fill="none"></path>
        <path stroke="#FFFFFF" d="M907 683v70h-65v-70h65z" fill="none"></path>
        <path stroke="#FFFFFF" d="M972 683v70h-65v-70h65z" fill="none"></path>
        <path stroke="#FFFFFF" d="M1037 683v70h-65v-70h65z" fill="none"></path>
        <path stroke="#FFFFFF" d="M1102 683v70h-65v-70h65z" fill="none"></path>
        <path stroke="#FFFFFF" d="M1167 683v70h-65v-70h65z" fill="none"></path>
        <path stroke="#FFFFFF" d="M1232 683v70h-65v-70h65z" fill="none"></path>
        <path stroke="#FFFFFF" d="M1297 683v70h-65v-70h65z" fill="none"></path>
        <path stroke="#FFFFFF" d="M1362 683v70h-65v-70h65z" fill="none"></path>
        <path stroke="#FFFFFF" d="M1427 683v70h-65v-70h65z" fill="none"></path>
        <path stroke="#FFFFFF" d="M1493 683v70h-66v-70h66z" fill="none"></path>
        <path stroke="#FFFFFF" d="M1558 683v70h-65v-70h65z" fill="none"></path>
        <path stroke="#FFFFFF" d="M1623 683v70h-65v-70h65z" fill="none"></path>
        <path stroke="#FFFFFF" d="M1688 683v70h-65v-70h65z" fill="none"></path>
        <path stroke="#FFFFFF" d="M1753 683v70h-65v-70h65z" fill="none"></path>
        <path stroke="#FFFFFF" d="M1818 683v70h-65v-70h65z" fill="none"></path>
        <path stroke="#FFFFFF" d="M1883 683v70h-65v-70h65z" fill="none"></path>
        <path stroke="#FFFFFF" d="M126 753v70H61v-70h65z" fill="none"></path>
        <path stroke="#FFFFFF" d="M191 753v70h-65v-70h65z" fill="none"></path>
        <path stroke="#FFFFFF" d="M256 753v70h-65v-70h65z" fill="none"></path>
        <path stroke="#FFFFFF" d="M321 753v70h-65v-70h65z" fill="none"></path>
        <path stroke="#FFFFFF" d="M386 753v70h-65v-70h65z" fill="none"></path>
        <path stroke="#FFFFFF" d="M451 753v70h-65v-70h65z" fill="none"></path>
        <path stroke="#FFFFFF" d="M516 753v70h-65v-70h65z" fill="none"></path>
        <path stroke="#FFFFFF" d="M582 753v70h-66v-70h66z" fill="none"></path>
        <path stroke="#FFFFFF" d="M647 753v70h-65v-70h65z" fill="none"></path>
        <path stroke="#FFFFFF" d="M712 753v70h-65v-70h65z" fill="none"></path>
        <path stroke="#FFFFFF" d="M777 753v70h-65v-70h65z" fill="none"></path>
        <path stroke="#FFFFFF" d="M842 753v70h-65v-70h65z" fill="none"></path>
        <path stroke="#FFFFFF" d="M907 753v70h-65v-70h65z" fill="none"></path>
        <path stroke="#FFFFFF" d="M972 753v70h-65v-70h65z" fill="none"></path>
        <path stroke="#FFFFFF" d="M1037 753v70h-65v-70h65z" fill="none"></path>
        <path stroke="#FFFFFF" d="M1102 753v70h-65v-70h65z" fill="none"></path>
        <path stroke="#FFFFFF" d="M1167 753v70h-65v-70h65z" fill="none"></path>
        <path stroke="#FFFFFF" d="M1232 753v70h-65v-70h65z" fill="none"></path>
        <path stroke="#FFFFFF" d="M126 823v70H61v-70h65z" fill="none"></path>
        <path stroke="#FFFFFF" d="M191 823v70h-65v-70h65z" fill="none"></path>
        <path stroke="#FFFFFF" d="M256 823v70h-65v-70h65z" fill="none"></path>
        <path stroke="#FFFFFF" d="M321 823v70h-65v-70h65z" fill="none"></path>
        <path stroke="#FFFFFF" d="M386 823v70h-65v-70h65z" fill="none"></path>
        <path stroke="#FFFFFF" d="M451 823v70h-65v-70h65z" fill="none"></path>
        <path stroke="#FFFFFF" d="M516 823v70h-65v-70h65z" fill="none"></path>
        <path stroke="#FFFFFF" d="M582 823v70h-66v-70h66z" fill="none"></path>
        <path stroke="#FFFFFF" d="M647 823v70h-65v-70h65z" fill="none"></path>
        <path stroke="#FFFFFF" d="M712 823v70h-65v-70h65z" fill="none"></path>
        <path stroke="#FFFFFF" d="M777 823v70h-65v-70h65z" fill="none"></path>
        <path stroke="#FFFFFF" d="M842 823v70h-65v-70h65z" fill="none"></path>
        <path stroke="#FFFFFF" d="M907 823v70h-65v-70h65z" fill="none"></path>
        <path stroke="#FFFFFF" d="M972 823v70h-65v-70h65z" fill="none"></path>
        <path stroke="#FFFFFF" d="M1037 823v70h-65v-70h65z" fill="none"></path>
        <path stroke="#FFFFFF" d="M1102 823v70h-65v-70h65z" fill="none"></path>
        <path stroke="#FFFFFF" d="M1167 823v70h-65v-70h65z" fill="none"></path>
        <path stroke="#FFFFFF" d="M1232 823v70h-65v-70h65z" fill="none"></path>
        <path stroke="#FFFFFF" d="M1883 763v270h-440V763h440z" fill="none"></path>
        <path stroke="#FFFFFF" d="M1432 763v200h-190V763h190z" fill="none"></path>
        <path stroke="#FFFFFF" d="M1432 974v59h-190v-59h190z" fill="none"></path>
        <path stroke="#FFFFFF" d="M126 893v70H61v-70h65z" fill="none"></path>
        <path stroke="#FFFFFF" d="M191 893v70h-65v-70h65z" fill="none"></path>
        <path stroke="#FFFFFF" d="M256 893v70h-65v-70h65z" fill="none"></path>
        <path stroke="#FFFFFF" d="M321 893v70h-65v-70h65z" fill="none"></path>
        <path stroke="#FFFFFF" d="M386 893v70h-65v-70h65z" fill="none"></path>
        <path stroke="#FFFFFF" d="M451 893v70h-65v-70h65z" fill="none"></path>
        <path stroke="#FFFFFF" d="M516 893v70h-65v-70h65z" fill="none"></path>
        <path stroke="#FFFFFF" d="M582 893v70h-66v-70h66z" fill="none"></path>
        <path stroke="#FFFFFF" d="M647 893v70h-65v-70h65z" fill="none"></path>
        <path stroke="#FFFFFF" d="M712 893v70h-65v-70h65z" fill="none"></path>
        <path stroke="#FFFFFF" d="M777 893v70h-65v-70h65z" fill="none"></path>
        <path stroke="#FFFFFF" d="M842 893v70h-65v-70h65z" fill="none"></path>
        <path stroke="#FFFFFF" d="M907 893v70h-65v-70h65z" fill="none"></path>
        <path stroke="#FFFFFF" d="M972 893v70h-65v-70h65z" fill="none"></path>
        <path stroke="#FFFFFF" d="M1037 893v70h-65v-70h65z" fill="none"></path>
        <path stroke="#FFFFFF" d="M1102 893v70h-65v-70h65z" fill="none"></path>
        <path stroke="#FFFFFF" d="M1167 893v70h-65v-70h65z" fill="none"></path>
        <path stroke="#FFFFFF" d="M1232 893v70h-65v-70h65z" fill="none"></path>
        <path stroke="#FFFFFF" d="M126 963v70H61v-70h65z" fill="none"></path>
        <path stroke="#FFFFFF" d="M191 963v70h-65v-70h65z" fill="none"></path>
        <path stroke="#FFFFFF" d="M256 963v70h-65v-70h65z" fill="none"></path>
        <path stroke="#FFFFFF" d="M321 963v70h-65v-70h65z" fill="none"></path>
        <path stroke="#FFFFFF" d="M386 963v70h-65v-70h65z" fill="none"></path>
        <path stroke="#FFFFFF" d="M451 963v70h-65v-70h65z" fill="none"></path>
        <path stroke="#FFFFFF" d="M516 963v70h-65v-70h65z" fill="none"></path>
        <path stroke="#FFFFFF" d="M582 963v70h-66v-70h66z" fill="none"></path>
        <path stroke="#FFFFFF" d="M647 963v70h-65v-70h65z" fill="none"></path>
        <path stroke="#FFFFFF" d="M712 963v70h-65v-70h65z" fill="none"></path>
        <path stroke="#FFFFFF" d="M777 963v70h-65v-70h65z" fill="none"></path>
        <path stroke="#FFFFFF" d="M842 963v70h-65v-70h65z" fill="none"></path>
        <path stroke="#FFFFFF" d="M907 963v70h-65v-70h65z" fill="none"></path>
        <path stroke="#FFFFFF" d="M972 963v70h-65v-70h65z" fill="none"></path>
        <path stroke="#FFFFFF" d="M1037 963v70h-65v-70h65z" fill="none"></path>
        <path stroke="#FFFFFF" d="M1102 963v70h-65v-70h65z" fill="none"></path>
        <path stroke="#FFFFFF" d="M1167 963v70h-65v-70h65z" fill="none"></path>
        <path stroke="#FFFFFF" d="M1232 963v70h-65v-70h65z" fill="none"></path>
    </g>
</svg>