<svg xmlns:xlink="http://www.w3.org/1999/xlink" preserveAspectRatio="xMidYMid meet" data-bbox="1 1 1603 193" xmlns="http://www.w3.org/2000/svg" viewBox="0 0 1605 195" height="195" width="1605" data-type="ugc" role="presentation" aria-hidden="true" aria-label="">
    <g>
        <path stroke-opacity="0.5" stroke="#FFFFFF" d="m1604 1-54.91 123.62c-11.86 26.709-49.77 26.709-61.63 0l-24.09-54.24c-11.87-26.71-49.77-26.71-61.64 0l-24.09 54.24c-11.86 26.709-49.77 26.709-61.63 0l-24.09-54.24c-11.87-26.71-49.77-26.71-61.64 0l-24.09 54.24c-11.86 26.709-49.77 26.709-61.63 0l-24.1-54.24c-11.86-26.71-49.77-26.71-61.63 0l-24.09 54.24c-11.86 26.709-49.771 26.709-61.634 0l-24.092-54.24c-11.864-26.71-49.77-26.71-61.634 0l-24.092 54.24c-11.863 26.709-49.77 26.709-61.633 0l-17.646-39.729c-11.864-26.709-49.77-26.709-61.634 0l-17.646 39.729c-11.864 26.709-49.77 26.709-61.634 0l-17.646-39.729c-11.864-26.709-49.77-26.709-61.634 0l-17.646 39.729c-11.863 26.709-49.77 26.709-61.634 0l-24.091-54.24c-11.864-26.71-49.77-26.71-61.634 0l-24.092 54.24c-11.863 26.709-49.77 26.709-61.633 0l-24.092-54.24c-11.864-26.71-49.77-26.71-61.634 0l-24.091 54.24c-11.864 26.709-49.771 26.709-61.634 0l-24.092-54.24c-11.863-26.71-49.77-26.71-61.634 0L1 194" fill="none"></path>
        <path fill="#CFFF28" d="M1469 74a4 4 0 1 1-8 0 4 4 0 0 1 8 0z"></path>
        <path fill="#CFFF28" d="M1323 128a4 4 0 1 1-8 0 4 4 0 0 1 8 0z"></path>
        <path fill="#CFFF28" d="M1218 110a4 4 0 1 1-8 0 4 4 0 0 1 8 0z"></path>
        <path fill="#CFFF28" d="M140 114a4 4 0 1 1-8 0 4 4 0 0 1 8 0z"></path>
        <path fill="#CFFF28" d="M211 114a4 4 0 1 1-8 0 4 4 0 0 1 8 0z"></path>
        <path fill="#CFFF28" d="M464 70a4 4 0 1 1-8 0 4 4 0 0 1 8 0z"></path>
        <path fill="#CFFF28" d="M1093 51a4 4 0 1 1-8 0 4 4 0 0 1 8 0z"></path>
        <path fill="#CFFF28" d="M970 108a4 4 0 1 1-8 0 4 4 0 0 1 8 0z"></path>
        <path fill="#CFFF28" d="M300 87a4 4 0 1 1-8 0 4 4 0 0 1 8 0z"></path>
        <path fill="#CFFF28" d="M789 87a4 4 0 1 1-8 0 4 4 0 0 1 8 0z"></path>
        <path fill="#CFFF28" d="M366 140a4 4 0 1 1-8 0 4 4 0 0 1 8 0z"></path>
        <path fill="#CFFF28" d="M561 102a4 4 0 1 1-8 0 4 4 0 0 1 8 0z"></path>
        <path fill="#CFFF28" d="M678 144a4 4 0 1 1-8 0 4 4 0 0 1 8 0z"></path>
    </g>
</svg>